<svg id="Calque_1" data-name="Calque 1" xmlns="http://www.w3.org/2000/svg" viewBox="0 0 100 100"><title>ic</title><line x1="22.64" y1="67.69" x2="22.64" y2="82.5" style="fill:none;stroke:#c90;stroke-miterlimit:10;stroke-width:2px"/><line x1="27.62" y1="67.69" x2="27.62" y2="82.5" style="fill:none;stroke:#c90;stroke-miterlimit:10;stroke-width:2px"/><line x1="32.59" y1="67.69" x2="32.59" y2="82.5" style="fill:none;stroke:#c90;stroke-miterlimit:10;stroke-width:2px"/><line x1="37.56" y1="67.69" x2="37.56" y2="82.5" style="fill:none;stroke:#c90;stroke-miterlimit:10;stroke-width:2px"/><line x1="42.54" y1="67.69" x2="42.54" y2="82.5" style="fill:none;stroke:#c90;stroke-miterlimit:10;stroke-width:2px"/><line x1="47.51" y1="67.69" x2="47.51" y2="82.5" style="fill:none;stroke:#c90;stroke-miterlimit:10;stroke-width:2px"/><line x1="52.49" y1="67.69" x2="52.49" y2="82.5" style="fill:none;stroke:#c90;stroke-miterlimit:10;stroke-width:2px"/><line x1="57.46" y1="67.69" x2="57.46" y2="82.5" style="fill:none;stroke:#c90;stroke-miterlimit:10;stroke-width:2px"/><line x1="62.44" y1="67.69" x2="62.44" y2="82.5" style="fill:none;stroke:#c90;stroke-miterlimit:10;stroke-width:2px"/><line x1="67.41" y1="67.69" x2="67.41" y2="82.5" style="fill:none;stroke:#c90;stroke-miterlimit:10;stroke-width:2px"/><line x1="72.38" y1="67.69" x2="72.38" y2="82.5" style="fill:none;stroke:#c90;stroke-miterlimit:10;stroke-width:2px"/><line x1="77.36" y1="67.69" x2="77.36" y2="82.5" style="fill:none;stroke:#c90;stroke-miterlimit:10;stroke-width:2px"/><path d="M19.67,67.69H80.33a2,2,0,0,1,2,2V82.5a0,0,0,0,1,0,0H17.67a0,0,0,0,1,0,0V69.69A2,2,0,0,1,19.67,67.69Z" style="fill:none;stroke:#c90;stroke-miterlimit:10;stroke-width:2px"/><path d="M24.67,52.87H75.33a5,5,0,0,1,5,5v9.81a0,0,0,0,1,0,0H19.67a0,0,0,0,1,0,0V57.87a5,5,0,0,1,5-5Z" style="fill:none;stroke:#c90;stroke-miterlimit:10;stroke-width:2px"/><path d="M29.67,38.06H70.33a5,5,0,0,1,5,5v9.81a0,0,0,0,1,0,0H24.67a0,0,0,0,1,0,0V43.06A5,5,0,0,1,29.67,38.06Z" style="fill:none;stroke:#c90;stroke-miterlimit:10;stroke-width:2px"/><path d="M34.67,23.24H65.33a5,5,0,0,1,5,5v9.81a0,0,0,0,1,0,0H29.67a0,0,0,0,1,0,0V28.24A5,5,0,0,1,34.67,23.24Z" style="fill:none;stroke:#c90;stroke-miterlimit:10;stroke-width:2px"/><path d="M26.41,60.28a3.37,3.37,0,1,1,6.74,0" style="fill:none;stroke:#c90;stroke-linecap:round;stroke-linejoin:round"/><path d="M39.89,60.28a3.37,3.37,0,1,1,6.74,0" style="fill:none;stroke:#c90;stroke-linecap:round;stroke-linejoin:round"/><path d="M53.37,60.28a3.37,3.37,0,1,1,6.74,0" style="fill:none;stroke:#c90;stroke-linecap:round;stroke-linejoin:round"/><path d="M66.85,60.28a3.37,3.37,0,0,1,6.74,0" style="fill:none;stroke:#c90;stroke-linecap:round;stroke-linejoin:round"/><path d="M26.41,60.28a3.37,3.37,0,0,1-6.74,0" style="fill:none;stroke:#c90;stroke-linecap:round;stroke-linejoin:round"/><path d="M39.89,60.28a3.37,3.37,0,1,1-6.74,0" style="fill:none;stroke:#c90;stroke-linecap:round;stroke-linejoin:round"/><path d="M53.37,60.28a3.37,3.37,0,0,1-6.74,0" style="fill:none;stroke:#c90;stroke-linecap:round;stroke-linejoin:round"/><path d="M66.85,60.28a3.37,3.37,0,1,1-6.74,0" style="fill:none;stroke:#c90;stroke-linecap:round;stroke-linejoin:round"/><path d="M80.33,60.28a3.37,3.37,0,0,1-6.74,0" style="fill:none;stroke:#c90;stroke-linecap:round;stroke-linejoin:round"/><path d="M30.3,45.47a2.82,2.82,0,1,1,5.63,0" style="fill:none;stroke:#c90;stroke-linecap:round;stroke-linejoin:round"/><path d="M41.56,45.47a2.82,2.82,0,1,1,5.63,0" style="fill:none;stroke:#c90;stroke-linecap:round;stroke-linejoin:round"/><path d="M52.82,45.47a2.81,2.81,0,1,1,5.62,0" style="fill:none;stroke:#c90;stroke-linecap:round;stroke-linejoin:round"/><path d="M64.07,45.47a2.82,2.82,0,1,1,5.63,0" style="fill:none;stroke:#c90;stroke-linecap:round;stroke-linejoin:round"/><path d="M30.3,45.47a2.82,2.82,0,0,1-5.63,0" style="fill:none;stroke:#c90;stroke-linecap:round;stroke-linejoin:round"/><path d="M41.56,45.47a2.82,2.82,0,0,1-5.63,0" style="fill:none;stroke:#c90;stroke-linecap:round;stroke-linejoin:round"/><path d="M52.82,45.47a2.82,2.82,0,0,1-5.63,0" style="fill:none;stroke:#c90;stroke-linecap:round;stroke-linejoin:round"/><path d="M64.07,45.47a2.82,2.82,0,0,1-5.63,0" style="fill:none;stroke:#c90;stroke-linecap:round;stroke-linejoin:round"/><path d="M75.33,45.47a2.82,2.82,0,0,1-5.63,0" style="fill:none;stroke:#c90;stroke-linecap:round;stroke-linejoin:round"/><path d="M34.19,30.65a2.26,2.26,0,1,1,4.51,0" style="fill:none;stroke:#c90;stroke-linecap:round;stroke-linejoin:round"/><path d="M43.22,30.65a2.26,2.26,0,0,1,4.52,0" style="fill:none;stroke:#c90;stroke-linecap:round;stroke-linejoin:round"/><path d="M52.26,30.65a2.26,2.26,0,0,1,4.52,0" style="fill:none;stroke:#c90;stroke-linecap:round;stroke-linejoin:round"/><path d="M61.3,30.65a2.26,2.26,0,1,1,4.52,0" style="fill:none;stroke:#c90;stroke-linecap:round;stroke-linejoin:round"/><path d="M34.19,30.65a2.26,2.26,0,0,1-4.52,0" style="fill:none;stroke:#c90;stroke-linecap:round;stroke-linejoin:round"/><path d="M43.22,30.65a2.26,2.26,0,0,1-4.52,0" style="fill:none;stroke:#c90;stroke-linecap:round;stroke-linejoin:round"/><path d="M52.26,30.65a2.26,2.26,0,1,1-4.52,0" style="fill:none;stroke:#c90;stroke-linecap:round;stroke-linejoin:round"/><path d="M61.3,30.65a2.26,2.26,0,0,1-4.52,0" style="fill:none;stroke:#c90;stroke-linecap:round;stroke-linejoin:round"/><path d="M70.33,30.65a2.26,2.26,0,1,1-4.51,0" style="fill:none;stroke:#c90;stroke-linecap:round;stroke-linejoin:round"/><path d="M50,10c-5.63-5.12-16.85,5.13,0,13.2h0C66.85,15.17,55.63,4.92,50,10Z" style="fill:none;stroke:#c90;stroke-linejoin:round;stroke-width:2px"/></svg>