<svg id="Calque_1" data-name="Calque 1" xmlns="http://www.w3.org/2000/svg" viewBox="0 0 100 100"><title>ic</title><path d="M79.63,32.47l3.7,2.47V84.79a2,2,0,0,1-2,2H18.67a2,2,0,0,1-2-2V34.94l3.7-2.47" style="fill:none;stroke:#c90;stroke-miterlimit:10;stroke-width:2px"/><polyline points="44.44 16.42 50 12.71 55.56 16.42" style="fill:none;stroke:#c90;stroke-miterlimit:10;stroke-width:2px"/><polyline points="16.67 79.38 50 57.16 83.33 79.38" style="fill:none;stroke:#c90;stroke-miterlimit:10;stroke-width:2px"/><line x1="44.39" y1="60.82" x2="16.67" y2="42.34" style="fill:none;stroke:#c90;stroke-miterlimit:10;stroke-width:2px"/><path d="M56.33,60.34c-.83.48,27-18,27-18" style="fill:none;stroke:#c90;stroke-miterlimit:10;stroke-width:2px"/><path d="M79.63,44.81V17.42a1,1,0,0,0-1-1H21.37a1,1,0,0,0-1,1V44.81" style="fill:none;stroke:#c90;stroke-miterlimit:10;stroke-width:2px"/><line x1="26.33" y1="24.02" x2="45.84" y2="24.02" style="fill:none;stroke:#c90;stroke-miterlimit:10;stroke-width:2px"/><line x1="26.33" y1="28.35" x2="36.89" y2="28.35" style="fill:none;stroke:#c90;stroke-miterlimit:10;stroke-width:2px"/><line x1="26.33" y1="38.81" x2="74" y2="38.81" style="fill:none;stroke:#c90;stroke-miterlimit:10;stroke-width:2px"/><line x1="26.33" y1="42.75" x2="74" y2="42.75" style="fill:none;stroke:#c90;stroke-miterlimit:10;stroke-width:2px"/><line x1="26.33" y1="46.69" x2="67.33" y2="46.69" style="fill:none;stroke:#c90;stroke-miterlimit:10;stroke-width:2px"/><line x1="35" y1="54.56" x2="65" y2="54.56" style="fill:none;stroke:#c90;stroke-miterlimit:10;stroke-width:2px"/></svg>