<svg id="Calque_1" data-name="Calque 1" xmlns="http://www.w3.org/2000/svg" viewBox="0 0 100 100"><title>ic</title><path d="M82.85,55.73A33.35,33.35,0,0,1,23.19,69.82" style="fill:none;stroke:#c90;stroke-linecap:round;stroke-linejoin:round;stroke-width:2px"/><path d="M20.25,65a33.34,33.34,0,0,1,57-34.23" style="fill:none;stroke:#c90;stroke-linecap:round;stroke-linejoin:round;stroke-width:2px"/><path d="M41.22,59a5.12,5.12,0,0,1-.59-1.08c-1-2.5,0-5.75-1.18-7.88s-3.85-1.12-5.09-2.87C32,43.88,31,45.21,27.47,42.78S24.59,29,24.59,29" style="fill:none;stroke:#c90;stroke-linecap:round;stroke-linejoin:round;stroke-width:2px"/><path d="M61.35,53.26a3.44,3.44,0,0,1,.76,1.41c.77,2.83-2.5,6.37-3.49,7.66s-.95.25-2.29,1.34-.76,3.54-2.17,5-5.25,2-6,3.46,1.2,3.34.78,4.86-1.86-.91-3.07-3.32.29-7.59-.59-10a4.21,4.21,0,0,0-.38-.8" style="fill:none;stroke:#c90;stroke-linecap:round;stroke-linejoin:round;stroke-width:2px"/><path d="M43.67,17.27a6.61,6.61,0,0,1,3.16,3.62c.8,2.49.17,4,1.67,4.44s2.71,1.34,1.67,2S46.79,27,44.63,28,40,33.64,39.5,34.58s0,2.75-1.75,1.55-3.75-.5-5.62,1-.73,3.39-.12,4.26,2.34.34,3.59,1.28-.07,2.5,1.29,2.85,3.73-.92,5.73-.91,3.22.93,5.3,1.72,5,1.3,6.24,1.8,1.05,1.56,2.17,2.37a5.07,5.07,0,0,0,1.09.52" style="fill:none;stroke:#c90;stroke-linecap:round;stroke-linejoin:round;stroke-width:2px"/><path d="M71.65,49.21c.95,2,2,3.46,3.73,3.46,2.25,0,3.25-1.67,4.25-2.67" style="fill:none;stroke:#c90;stroke-linecap:round;stroke-linejoin:round;stroke-width:2px"/><path d="M70.86,36.33a20.77,20.77,0,0,1-.09,2.16" style="fill:none;stroke:#c90;stroke-linecap:round;stroke-linejoin:round;stroke-width:2px"/><path d="M60.55,18.38c.33,2.55-.49,5.49,1.56,6.29a19.7,19.7,0,0,0,2.36.62" style="fill:none;stroke:#c90;stroke-linecap:round;stroke-linejoin:round;stroke-width:2px"/><path d="M64,48.07c-.62.84-.9,1.42-.76,1.62s.79.12,1.78-.21c0,0,2.1,4.35,3.11,7l1.26-.92L68,48.28a82.58,82.58,0,0,0,10.22-5.65l6.6,12,1.69-1.22L82,40.07c5.46-3.93,9.65-8,8.25-9.91s-6.55.77-12,4.74L67,26.42l-1.69,1.22,9.35,10a84.33,84.33,0,0,0-8.57,7.94c-.14-.11-3.93-2.14-6.45-3.59l-1.26.92Z" style="fill:none;stroke:#c90;stroke-linejoin:round"/><path d="M61.5,51C29,73.33-15.84,75,16.83,53.35" style="fill:none;stroke:#c90;stroke-linecap:round;stroke-linejoin:round"/></svg>