<svg id="Calque_1" data-name="Calque 1" xmlns="http://www.w3.org/2000/svg" viewBox="0 0 100 100"><title>ic</title><path d="M54.76,65.42a25.39,25.39,0,1,1,6.14,1.75" style="fill:none;stroke:#c90;stroke-linejoin:round;stroke-width:2px"/><path d="M56.38,59.18A19.09,19.09,0,1,1,62.46,61" style="fill:none;stroke:#c90;stroke-linejoin:round;stroke-width:2px"/><path d="M29,33.92a25.25,25.25,0,0,1,12.09-1.09" style="fill:none;stroke:#c90;stroke-linejoin:round;stroke-width:2px"/><path d="M47.22,34.58A25.39,25.39,0,1,1,20.37,39" style="fill:none;stroke:#c90;stroke-linejoin:round;stroke-width:2px"/><path d="M45.72,40.88A19.08,19.08,0,1,1,39.52,39" style="fill:none;stroke:#c90;stroke-linejoin:round;stroke-width:2px"/><polygon points="23.18 20.89 31.86 23.21 27.21 40.56 9.87 35.91 12.19 27.24 23.18 20.89" style="fill:none;stroke:#c90;stroke-linejoin:round;stroke-width:2px"/><line x1="31.86" y1="23.21" x2="9.87" y2="35.91" style="fill:none;stroke:#c90;stroke-linejoin:round;stroke-width:2px"/><polyline points="15.87 25.11 17.2 31.67 27.21 40.56 24.53 27.44 19.54 22.99" style="fill:none;stroke:#c90;stroke-linejoin:round;stroke-width:2px"/></svg>