<svg id="Calque_1" data-name="Calque 1" xmlns="http://www.w3.org/2000/svg" viewBox="0 0 237.68 66.7"><title>JaviAndSaad</title><path d="M88.73,46.44c.35,1.75-1.93,7.34-4.37,6.85C84.18,50,85.63,45.11,86,43.16q.73-4.38,1.6-8.75c.1-.55-1.39-1.35-2.21-1.86l-.52-.44h0a5.74,5.74,0,0,1-4.17,5.16,4.67,4.67,0,0,1-3.44-.11A10.14,10.14,0,0,0,77,34.25a5.39,5.39,0,0,0-2.78-3.34,2.35,2.35,0,0,0-2.56,0c-.17.15-.11.32-.2.55a.43.43,0,0,1,.45,0,3.46,3.46,0,0,1,1.23.84.93.93,0,0,1,.22.43.88.88,0,0,1,.44.28l0,0a.77.77,0,0,1,.1.18s-.22.1-.2.16h0l.23-.07H74c1.7,4.63-2.35,14-6.19,17.77h0a4.27,4.27,0,0,1-3.07,1.56s-.36-.42-.38-.48a9.31,9.31,0,0,1-.72-2.1,29.59,29.59,0,0,1,0-4.61,62.31,62.31,0,0,1,1-8.58h0c.19-1,.34-1.88.47-2.64.08-.41.14-.82.22-1.22,0-.08,0-.15,0-.22.1-.55-1.4-1.34-2.22-1.87l-.52-.43h0c-.44,2.16-.88,4.45-1.19,6.78-.82,4.25-1.93,8.54-4.23,11.87-.63.91-2.49,3.37-4,3.52a4,4,0,0,1-1.38-.17c-1.06-.65.39-4.51.62-5.41l2.59-6.63c.3-.84.6-1.68.88-2.52.16-.5-1.81-1.64-2.49-2.09l-.1-.08-.15-.13c-.24.65-.49,1.33-.75,2l-.09.25c-.4,1-.83,2.08-1.24,3.19-1.61,3.89-3.65,7.82-6.58,10.31-1,.81-2.36,1.8-3.29,1.15-2.65-2-.57-7.9,0-9.39A22.39,22.39,0,0,1,45.93,35a13.74,13.74,0,0,1,3.35-2.19,3.57,3.57,0,0,1,1.33-.53c1.21-.36,2.3-.51,2.13.76a2.4,2.4,0,0,1-.42.68c.18,1,2.61,1.61,2.73,2.3a6.54,6.54,0,0,0-2.63-4.25c-1.91-1.35-3.93-1-6.25.53-4.94,3.21-6.84,11.56-7.55,17.84a7.66,7.66,0,0,0,1.53,2.36c3.76,3.95,7.09,2,9.75-1.74.63-.07.55.51.37.85a6.51,6.51,0,0,0,2.95,2.75c3.79,1.91,6.44-1.23,8.29-5.72a3,3,0,0,1,1.06,2.59c1.51,2.56,4.24,4.66,7,2.91,3.68-2.33,7-10.08,7.57-15.85,2.94.07,4.75.1,6.34,1l-.27,1.57C82.69,44,81,49.48,82,52.66c.77,2.36,1.94,3.18,3.2,3.07,2.32-1.89,5.36-5,5.67-8.07C91,46.82,88.73,46.85,88.73,46.44Z" transform="translate(-0.8 -1.03)" style="fill:#fc6"/><path d="M32.67,8.25C26.34,7,19.06,11.56,13.5,14A40.79,40.79,0,0,1,9,15.72a13,13,0,0,0-1.46.39H7.49a16.33,16.33,0,0,1,3.28-3.5S8.56,10.1,8.13,10.41c-1.7,1.21-4.64,3.16-3.56,5.42.77,1.6,3.38,2.66,5,2.59,4.33-.21,9-3.4,12.93-5,3-1.25,11.08-5.13,14.07-2.42,3.42,3.11,1,12.42.2,16.12A87.23,87.23,0,0,1,31.28,43.9,53.37,53.37,0,0,1,21.09,58.8C18,61.94,12.17,67.2,7.22,65.34A5.68,5.68,0,0,1,4.09,62.6c-3-4.76.71-14.07,3.22-17.53a21.42,21.42,0,0,1,7.18-6.61c.09-.05.48.07.57,0A.87.87,0,0,1,15.48,37c.5-.14.94-.43,1.46-.54.79-.17,1.25.26,1.21.86.1,0,.21.12.31.07h0a2.41,2.41,0,0,1-.15.33c-.21.55,2.67,2.11,2.64,2.21.9-2.31-1.43-4.4-3.66-4.83A6.31,6.31,0,0,0,15.38,35C11,37.41,5,42.57,3.17,46.63a19.27,19.27,0,0,0,.69,16.7c.27.28,1.06,1.13,1.34,1.38,2.71,2.48,5.8,3.78,9.61,2.55,6.47-2.08,11.53-8.61,15.11-14.05,4.16-6.3,6.68-13.38,8.64-20.63C40.57,25.12,43.73,10.4,32.67,8.25Z" transform="translate(-0.8 -1.03)" style="fill:#fc6"/><path d="M88.54,30.46a18.31,18.31,0,0,0,2.74-8.53c0-.72-2.2-1.45-2.19-1.83a18.38,18.38,0,0,1-2.73,8.52C86.17,28.94,88.52,30.51,88.54,30.46Z" transform="translate(-0.8 -1.03)" style="fill:#fc6"/><path d="M238.44,48.11c-.15-1-2.64-1.64-2.74-2.3.45,3.14-3.14,7-6.29,7.15-1.14.06-.81-5.27.21-9.27s3-9.55,4.64-14.28q2.22-5.85,4.18-11.8c.16-.51-1.81-1.63-2.49-2.09l-.25-.21q-1.63,4.62-3.18,9.27C231,29.27,229,33.81,227,38.32c-.71,1.59-1.45,3.18-2.22,4.75s-4,9.17-6.78,9.7a2.42,2.42,0,0,1-.93,0c-1.19-.35-1.27-2-1.21-3a16.6,16.6,0,0,1,.66-2.63c.18-.78.41-1.55.64-2.31a41.61,41.61,0,0,1,1.49-4,13.86,13.86,0,0,1,.61-1.29q.5-.89,1.08-1.74a5.24,5.24,0,0,1,2.5-3.38,12.94,12.94,0,0,1,3-1.31l.93-.25.39-.1a1.67,1.67,0,0,1,.2-.45c0-.29-.19-.24,0-.49a3.56,3.56,0,0,0-1.1-.59c-5.45-1.88-9.4,5.72-10.79,9.65-.55,1.59-1.59,3.27-1.72,4.92a6.75,6.75,0,0,1-.47.59c-.38.46-.77.92-1.17,1.36a35.67,35.67,0,0,1-2.53,2.54,11.64,11.64,0,0,1-1.67,1.21A10.53,10.53,0,0,1,207,52c-.09,0-1,.39-1,.42-.45-3.9.55-6.68,2.33-11.15.64-1.7,1.19-2.93,1.32-3.37s-1.81-1.62-2.48-2.08l-.25-.21C206,39.83,203,46.4,201.59,48.15s-2.89,3.46-4.52,4.14a3.05,3.05,0,0,1-1.18.28c-2.5-.17-1.59-2.24-1.45-4,0-.39.07-.79.12-1.19a22.31,22.31,0,0,1,3.73-9.44c-.09-2.69,1.74-3.5,3.3-4.49a7.63,7.63,0,0,1,2-1c.27-.07.66,0,.92-.08a2.43,2.43,0,0,1,1.8.42c.17.15.09.49-.24,1,.16,1,2.63,1.63,2.74,2.3a7.33,7.33,0,0,0-3.57-4.9c-1.43.57-1.68-.16-2.56-.13-6.45.28-8.91,9.24-10.91,14.73a4.93,4.93,0,0,1-.5.63c-.38.46-.77.92-1.17,1.36a33.68,33.68,0,0,1-2.53,2.54,11.11,11.11,0,0,1-1.67,1.21c-.3.19-.61.36-.92.52-.09,0-1,.39-1,.42-.81-3.29.33-5.53,2-10.12.79-2.23,1.54-3.87,1.69-4.4s-1.81-1.62-2.48-2.08l-.25-.21C184,39.83,181,46.4,179.53,48.15s-2.89,3.46-4.52,4.14a2.59,2.59,0,0,1-1.49.25c-2.4-.65-1.78-2.33-1.65-4a24.27,24.27,0,0,1,3.71-11.28,14,14,0,0,1,4.07-3.73,7.89,7.89,0,0,1,2.15-.87c.27-.07.45-.22.71-.28.85-.27,1.73.17,1.79.47a1.32,1.32,0,0,1-.32.87c.16,1,2.63,1.63,2.74,2.3a7.32,7.32,0,0,0-3.05-4.59,24,24,0,0,0-3.08-.44c-6.65.29-9.81,9.79-10.22,15.25-.13,1.69.25,2.78.25,4.81a7.8,7.8,0,0,0,4,3.61c2.61,1.07,5.06-.84,7.13-3.75.94-.18,1.06.53.87,1.48a7,7,0,0,0,1.35,1.3c3.05,2.27,6.18-.4,8.5-3.14v-.06c.69.32,1.33.57.72,1.31a7.64,7.64,0,0,0,3.5,2.86c2.61,1.07,5.06-.84,7.13-3.75.53.28.84.63.6,1.13A6.82,6.82,0,0,0,206,53.71c3.05,2.27,6.18-.4,8.5-3.14.83.39,1.06,1.1,1.53,2.12,1.34,1.31,3.1,2.89,5.06,2.15,2.38-.9,4.06-4.81,5.18-6.92.54.29.46,1,.54,1.56.14,1,.56,1.6.67,2.71a7.55,7.55,0,0,0,3,2.6C234,56.56,239,51.87,238.44,48.11Z" transform="translate(-0.8 -1.03)" style="fill:#fc6"/><path d="M164.37,20.6c2.73,2.43,5.26,2.26,8.17-.1,0,0-2.63-2.9-3-2.56-1.06.86-2.63,2-3.64,1.71a2,2,0,0,1-1.35-1.6c-.41-3.22,3.1-6.13,3.5-9.23.22-1.64.35-3.09-.77-4.28a13.26,13.26,0,0,0-2.8-2.17c-9.83-5.79-17.85,8.49-13.74,16.68,2.06,4.09,5.24,7.55,8,11.27a20.41,20.41,0,0,1,5.24,10A18.25,18.25,0,0,1,158,56.78a13,13,0,0,1-7.82,2.95,6.45,6.45,0,0,1-5.75-2.9,12.68,12.68,0,0,1-1.79-5.28c-.71-5.1,1.71-16.89,9.33-15.56-.51-.09-1.79-2.36-2.87-2.54-5-.87-8.47,5.11-9.27,9.22-1,5.23,0,10.72,3.69,14.68a15.26,15.26,0,0,0,3.57,2.85c6.53,1.45,10.65,1.45,15.05-4.45,9.39-12.61-1.57-22.66-7.76-33.15-3.06-5.17-2.7-12.23,2.28-16.18A12.9,12.9,0,0,1,162,4c.79-.15,3.39-.58,3.92.22,1.43,1,.84,3.69.37,4.66,0,3.12-2.13,5.75-4.19,7.83A6,6,0,0,0,164.37,20.6Z" transform="translate(-0.8 -1.03)" style="fill:#fc6"/><path d="M130.24,56.28c-3.33-.19-6.24-2.35-8.72-5,1-5.41,2.93-11.56,7.39-12.37-.61.11.66-2.1-.43-1.9-4.61.84-6.37,6.29-8.57,9.82-.28.45-.9.56-1.19,1-1-1.35-2.39-2.7-3.19-3.88-1-1.47-2.4-3-2.4-4.57.85-1.12,1.68-2.2,2.41-3.24,2.51-3.55,6.69-8.47,3.68-12.8a9.73,9.73,0,0,0-6.61-4l-6.08,5.88s1.59,7.09,3.15,11.81c-4.71,6.8-10.08,16.69.08,21a7.36,7.36,0,0,0,3.64.66l7.82-6.93c3.56,3.66,7.89,7,12.29,7.28C132.61,59,131.51,56.35,130.24,56.28ZM113.18,21.36a3.83,3.83,0,0,1,3.44.65c2,2-4.14,11.06-5.59,13.05l0,0s-1.85-3.78-1.85-3.78C108.21,27.63,109,22.66,113.18,21.36Zm1.76,32.32c-2,1.81-5.18,4.33-7.47,1.33a4.09,4.09,0,0,1-.56-2.32c0-4.31,2.54-8.35,5.22-12a6.24,6.24,0,0,1,2.43,3.24l1.74,2.17c.59.74,1.25,1.54,2,2.38A11.35,11.35,0,0,1,114.94,53.68Z" transform="translate(-0.8 -1.03)" style="fill:#fc6"/><path d="M9.55,18.42c4.33-.21,9-3.4,12.93-5,3-1.25,11.08-5.13,14.07-2.42a4.73,4.73,0,0,1,1.2,1.91A6.67,6.67,0,0,0,35,9l-.19-.15a10.24,10.24,0,0,0-2.09-.63C26.34,7,19.06,11.56,13.5,14A40.79,40.79,0,0,1,9,15.72c-.35.1-.78.17-1.15.28a.83.83,0,0,1-.29.1h0l0,0A2.69,2.69,0,0,1,4.66,15a2.53,2.53,0,0,1-.26-.64,2.27,2.27,0,0,0,.17,1.48C5.34,17.43,8,18.49,9.55,18.42Z" transform="translate(-0.8 -1.03)" style="fill:#c90"/><path d="M17.49,36a3.8,3.8,0,0,0-1.31-.85,5.34,5.34,0,0,0-.8-.13c-5.4.63-10.85,7.54-12.72,11.6-2.5,5.46-2.84,12,1.2,16.7l.28.23h0l0,0,.35.27a8.71,8.71,0,0,0,2.7,1.48,5.69,5.69,0,0,1-3.1-2.69l0,0C1.51,57.66,5,48.54,7.48,45.07a21,21,0,0,1,7.3-6.32,11.9,11.9,0,0,1,3.71-1.33C18.45,37,17.73,36.22,17.49,36Z" transform="translate(-0.8 -1.03)" style="fill:#c90"/><path d="M41.27,52.53c-1.89-1.33.13-7.9.67-9.39a19.81,19.81,0,0,1,4.55-7.55,10.44,10.44,0,0,1,2.79-2.1,6.81,6.81,0,0,1,1.87-.65c1.2-.35,1.73-.28,1.58.21a.64.64,0,0,0,0-.84,4.71,4.71,0,0,0-.36-.42,6,6,0,0,0-6.81,0c-5,3.23-9.55,12.49-6.94,18.5A5.76,5.76,0,0,0,41.27,52.53Z" transform="translate(-0.8 -1.03)" style="fill:#c90"/><path d="M53.25,52.63a1.24,1.24,0,0,1-.75-.16c-1.06-.65.17-4.51.4-5.41.58-2.25,1.39-4.44,2.18-6.63A73.52,73.52,0,0,1,49.9,50.78a5.82,5.82,0,0,0,.38.85A3.2,3.2,0,0,0,53.25,52.63Z" transform="translate(-0.8 -1.03)" style="fill:#c90"/><path d="M64.09,50a26.8,26.8,0,0,1-.21-4.39A64,64,0,0,1,64.64,37a78.68,78.68,0,0,1-3.13,11.63,9.43,9.43,0,0,0,1.16,2.74,3.16,3.16,0,0,0,2,1.22s0-.1-.06-.16A11.68,11.68,0,0,1,64.09,50Z" transform="translate(-0.8 -1.03)" style="fill:#c90"/><path d="M74.34,35c-.81-.27-.89-1.47-.35-1.68a3.74,3.74,0,0,0-2.38-2.41c-.68.59-.7,1.84.23,3.17a10.13,10.13,0,0,0,2.51,2.51A9,9,0,0,0,74.34,35Z" transform="translate(-0.8 -1.03)" style="fill:#c90"/><polygon points="84.02 31.08 84.02 31.09 84.03 31.09 84.02 31.08" style="fill:#c90"/><path d="M83.48,39.3c.43-2.41,1.34-7.18,1.34-7.18A6.33,6.33,0,0,1,80.65,37a7.07,7.07,0,0,1-3.44.17l-.07,1.14A9.83,9.83,0,0,0,83.48,39.3Z" transform="translate(-0.8 -1.03)" style="fill:#c90"/><path d="M88.73,45.37c-.18,1.71-2.07,6.47-4.37,7.92,0,1.6.43,2.33.91,2.43,2.75-.33,5.9-5,6.2-8.06C91.56,46.82,88.73,45.78,88.73,45.37Z" transform="translate(-0.8 -1.03)" style="fill:#c90"/><path d="M111,35.09a25.26,25.26,0,0,1-1.31-3.78c-1-3.68-.19-8.09,4-9.39,1.55-.47,2.46-.36,2.92.14h0a7.38,7.38,0,0,0-4-2.77c-3.24-.4-6.31,1.23-6.66,5.87-.28,3.8,1.43,8,3.73,11.81Z" transform="translate(-0.8 -1.03)" style="fill:#c90"/><path d="M114.41,53.15c-2,1.82-5.49,3.84-6.94,1.86a7.69,7.69,0,0,0,5.94,3.66c3.3-.32,5.67-3.34,7.81-6.93-.83-.83-2-2.14-3-3.25A26.64,26.64,0,0,1,114.41,53.15Z" transform="translate(-0.8 -1.03)" style="fill:#c90"/><path d="M121.52,51.24c3.08-5.28,5.77-11.56,10.23-12.37-.61.11-2.18-2.95-3.27-2.75-4.61.84-6.71,6.8-8.91,10.34l-.85,1.34-.23.35C119.49,49.18,120.37,50.07,121.52,51.24Z" transform="translate(-0.8 -1.03)" style="fill:#c90"/><path d="M121.52,51.24c-.67-.81-2.2-2.63-2.8-3.44-1-1.35-1.91-2.7-2.71-3.88-1-1.47-2-3-2.88-4.57-.27.37-.67.88-1,1.34.82,1.15,1.64,2.23,2.43,3.24C117.93,47.62,119.17,48.86,121.52,51.24Z" transform="translate(-0.8 -1.03)" style="fill:#c90"/><path d="M154.36,22.6c-.21-.35-.4-.71-.57-1.07a56.35,56.35,0,0,0,4.86,8.79l.77,1.09.12.17a4.49,4.49,0,0,1,.41.62,22.22,22.22,0,0,1,3.47,8.08c1.12,6-1.49,12-6,15.94a12.56,12.56,0,0,1-7.59,3.17,5.66,5.66,0,0,1-5.42-2.57h0a14.79,14.79,0,0,0,2.66,3.37c5.45,3.08,11.69,1.45,16.09-4.45C172.55,43.14,160.55,33.09,154.36,22.6Z" transform="translate(-0.8 -1.03)" style="fill:#c90"/><path d="M167.24,4.55a4,4,0,0,0-2.17-.75h0a1.28,1.28,0,0,1,.91.42c.73,1.1-.68,3.69-1.16,4.66-1.37,2.79-2.92,5.35-2.65,7.83a5.91,5.91,0,0,0,3.71,2.94c-.46-.16-.8-.64-.93-1.6-.41-3.22,3.59-6.13,4-9.23A5.25,5.25,0,0,0,167.24,4.55Z" transform="translate(-0.8 -1.03)" style="fill:#c90"/><path d="M173.53,52.53c-1.3-.29-1.27-2.33-1.15-4a22,22,0,0,1,3.85-10.63c1.79-2.58,4.23-4.85,7.46-5.27.2,0,.56,0,.61.21a3,3,0,0,0-.63-1.41,5.21,5.21,0,0,0-3.08-1c-6.65.29-10.54,10.31-11,15.77a8.86,8.86,0,0,0,1,4.8A3.47,3.47,0,0,0,173.53,52.53Z" transform="translate(-0.8 -1.03)" style="fill:#c90"/><path d="M216.53,47.1l0,.06a9.83,9.83,0,0,1-2,3.41A7.27,7.27,0,0,0,216,52.69c.55.53,1.1.45,1.92.11l0,0a1.68,1.68,0,0,1-.74,0c-1.18-.35-1.2-2-1.14-3A15.51,15.51,0,0,1,216.53,47.1Z" transform="translate(-0.8 -1.03)" style="fill:#c90"/><path d="M220.93,37c1.15-1.13,1.94-2.28,3.43-3a9.52,9.52,0,0,1,2.46-.88c.71-.11,1.35-.55,1.82.24-.29-.88-.42-1.51-1.16-2a6.68,6.68,0,0,0-1.2-.59c-5.45-1.88-10,6.19-11.36,10.12a19.76,19.76,0,0,0-1.15,4.92c1.74-2.12,5.58-6.86,7-8.66Z" transform="translate(-0.8 -1.03)" style="fill:#c90"/><path d="M229.41,53c-1.14.06-.42-5.27.61-9.27s2.62-9.55,4.24-14.28q1.28-3.39,2.47-6.83c-3.31,9.05-9,22.45-10.46,25.34a13.29,13.29,0,0,0,.15,1.56,6.72,6.72,0,0,0,1.07,2.7A2,2,0,0,0,229.41,53Z" transform="translate(-0.8 -1.03)" style="fill:#c90"/><path d="M206,52.42a31.66,31.66,0,0,1,2.33-11.15,88.3,88.3,0,0,1-4.58,9.66,5.87,5.87,0,0,0,.62,1.12A1.58,1.58,0,0,0,206,52.42Z" transform="translate(-0.8 -1.03)" style="fill:#c90"/><path d="M206.34,32.83a3.06,3.06,0,0,0-1.14-1.69,4.83,4.83,0,0,0-2.55-.65c-6.45.28-10.3,9.7-10.91,15.25,4.3-5.08,5.38-6.32,7.36-8.92a11.63,11.63,0,0,1,3.06-2.8,11.17,11.17,0,0,1,3.29-1.39C205.73,32.56,206.19,32.51,206.34,32.83Z" transform="translate(-0.8 -1.03)" style="fill:#c90"/><path d="M195.86,52.58l0,0c-1.61,0-1.59-2.23-1.45-4,0-.4.07-.8.13-1.21v0a14.91,14.91,0,0,1-2.11,3.18,8.63,8.63,0,0,0,.72,1.3C193.58,52.44,195.09,52.53,195.86,52.58Z" transform="translate(-0.8 -1.03)" style="fill:#c90"/><path d="M184,52.42a30.26,30.26,0,0,1,2-10.12,52,52,0,0,1-4.21,8.63,6.48,6.48,0,0,0,.88,1.49C182.82,52.71,183.47,52.53,184,52.42Z" transform="translate(-0.8 -1.03)" style="fill:#c90"/></svg>