<?xml version="1.0" encoding="utf-8"?>
<!-- Generator: Adobe Illustrator 22.1.0, SVG Export Plug-In . SVG Version: 6.00 Build 0)  -->
<svg version="1.1" id="Calque_1" xmlns="http://www.w3.org/2000/svg" xmlns:xlink="http://www.w3.org/1999/xlink" x="0px" y="0px"
	 viewBox="0 0 100 100" style="enable-background:new 0 0 100 100;" xml:space="preserve">
<style type="text/css">
	.st0{clip-path:url(#SVGID_2_);}
	.st1{fill:#003967;}
	.st2{fill:#FFFFFF;}
	.st3{fill:#CC3333;}
</style>
<g>
	<defs>
		
			<rect id="SVGID_1_" x="14.6" y="14.6" transform="matrix(0.7071 0.7071 -0.7071 0.7071 49.9979 -20.7157)" width="70.7" height="70.7"/>
	</defs>
	<clipPath id="SVGID_2_">
		<use xlink:href="#SVGID_1_"  style="overflow:visible;"/>
	</clipPath>
	<g class="st0">
		<rect class="st1" width="100" height="100"/>
		<rect x="43" y="-30" transform="matrix(0.6691 -0.7431 0.7431 0.6691 -20.6138 53.7007)" class="st2" width="14" height="160"/>
		<rect x="43" y="-30" transform="matrix(-0.6691 -0.7431 0.7431 -0.6691 46.2993 120.6138)" class="st2" width="14" height="160"/>
		<rect x="45" y="-30" transform="matrix(0.6691 -0.7431 0.7431 0.6691 -20.6138 53.7007)" class="st3" width="10" height="160"/>
		<rect x="45" y="-30" transform="matrix(-0.6691 -0.7431 0.7431 -0.6691 46.2993 120.6138)" class="st3" width="10" height="160"/>
		<rect x="40" class="st2" width="20" height="100"/>
		<rect x="40" transform="matrix(3.601570e-11 -1 1 3.601570e-11 -1.800785e-09 100)" class="st2" width="20" height="100"/>
		<rect x="42" class="st3" width="16" height="100"/>
		<rect x="42" y="0" transform="matrix(4.502005e-11 -1 1 4.502005e-11 -2.250545e-09 100)" class="st3" width="16" height="100"/>
	</g>
</g>
</svg>
