<svg id="Calque_1" data-name="Calque 1" xmlns="http://www.w3.org/2000/svg" viewBox="0 0 100 100"><title>language</title><rect width="100" height="100" style="fill:#fff"/><rect width="100" height="7.69" style="fill:#c33"/><rect y="15.38" width="100" height="7.69" style="fill:#c33"/><rect y="30.77" width="100" height="7.69" style="fill:#c33"/><rect y="46.15" width="100" height="7.69" style="fill:#c33"/><rect y="61.54" width="100" height="7.69" style="fill:#c33"/><rect y="76.92" width="100" height="7.69" style="fill:#c33"/><rect y="92.31" width="100" height="7.69" style="fill:#c33"/><rect width="50" height="53.85" style="fill:#003967"/><polygon points="8.1 9.54 9.64 8.41 7.73 8.41 7.14 6.6 6.55 8.41 4.64 8.41 6.19 9.54 5.6 11.35 7.14 10.23 8.69 11.35 8.1 9.54" style="fill:#fff"/><polygon points="11.67 14.02 13.21 12.9 11.3 12.9 10.71 11.08 10.12 12.9 8.21 12.9 9.76 14.02 9.17 15.84 10.71 14.72 12.26 15.84 11.67 14.02" style="fill:#fff"/><polygon points="18.81 14.02 20.36 12.9 18.45 12.9 17.86 11.08 17.27 12.9 15.36 12.9 16.9 14.02 16.31 15.84 17.86 14.72 19.4 15.84 18.81 14.02" style="fill:#fff"/><polygon points="25.95 14.02 27.5 12.9 25.59 12.9 25 11.08 24.41 12.9 22.5 12.9 24.05 14.02 23.45 15.84 25 14.72 26.55 15.84 25.95 14.02" style="fill:#fff"/><polygon points="33.1 14.02 34.64 12.9 32.73 12.9 32.14 11.08 31.55 12.9 29.64 12.9 31.19 14.02 30.6 15.84 32.14 14.72 33.69 15.84 33.1 14.02" style="fill:#fff"/><polygon points="40.24 14.02 41.79 12.9 39.88 12.9 39.29 11.08 38.7 12.9 36.79 12.9 38.33 14.02 37.74 15.84 39.29 14.72 40.83 15.84 40.24 14.02" style="fill:#fff"/><polygon points="11.67 23 13.21 21.88 11.3 21.88 10.71 20.06 10.12 21.88 8.21 21.88 9.76 23 9.17 24.81 10.71 23.69 12.26 24.81 11.67 23" style="fill:#fff"/><polygon points="18.81 23 20.36 21.88 18.45 21.88 17.86 20.06 17.27 21.88 15.36 21.88 16.9 23 16.31 24.81 17.86 23.69 19.4 24.81 18.81 23" style="fill:#fff"/><polygon points="25.95 23 27.5 21.88 25.59 21.88 25 20.06 24.41 21.88 22.5 21.88 24.05 23 23.45 24.81 25 23.69 26.55 24.81 25.95 23" style="fill:#fff"/><polygon points="33.1 23 34.64 21.88 32.73 21.88 32.14 20.06 31.55 21.88 29.64 21.88 31.19 23 30.6 24.81 32.14 23.69 33.69 24.81 33.1 23" style="fill:#fff"/><polygon points="40.24 23 41.79 21.88 39.88 21.88 39.29 20.06 38.7 21.88 36.79 21.88 38.33 23 37.74 24.81 39.29 23.69 40.83 24.81 40.24 23" style="fill:#fff"/><polygon points="11.67 31.97 13.21 30.85 11.3 30.85 10.71 29.03 10.12 30.85 8.21 30.85 9.76 31.97 9.17 33.79 10.71 32.66 12.26 33.79 11.67 31.97" style="fill:#fff"/><polygon points="18.81 31.97 20.36 30.85 18.45 30.85 17.86 29.03 17.27 30.85 15.36 30.85 16.9 31.97 16.31 33.79 17.86 32.66 19.4 33.79 18.81 31.97" style="fill:#fff"/><polygon points="25.95 31.97 27.5 30.85 25.59 30.85 25 29.03 24.41 30.85 22.5 30.85 24.05 31.97 23.45 33.79 25 32.66 26.55 33.79 25.95 31.97" style="fill:#fff"/><polygon points="33.1 31.97 34.64 30.85 32.73 30.85 32.14 29.03 31.55 30.85 29.64 30.85 31.19 31.97 30.6 33.79 32.14 32.66 33.69 33.79 33.1 31.97" style="fill:#fff"/><polygon points="40.24 31.97 41.79 30.85 39.88 30.85 39.29 29.03 38.7 30.85 36.79 30.85 38.33 31.97 37.74 33.79 39.29 32.66 40.83 33.79 40.24 31.97" style="fill:#fff"/><polygon points="11.67 40.95 13.21 39.82 11.3 39.82 10.71 38.01 10.12 39.82 8.21 39.82 9.76 40.95 9.17 42.76 10.71 41.64 12.26 42.76 11.67 40.95" style="fill:#fff"/><polygon points="18.81 40.95 20.36 39.82 18.45 39.82 17.86 38.01 17.27 39.82 15.36 39.82 16.9 40.95 16.31 42.76 17.86 41.64 19.4 42.76 18.81 40.95" style="fill:#fff"/><polygon points="25.95 40.95 27.5 39.82 25.59 39.82 25 38.01 24.41 39.82 22.5 39.82 24.05 40.95 23.45 42.76 25 41.64 26.55 42.76 25.95 40.95" style="fill:#fff"/><polygon points="33.1 40.95 34.64 39.82 32.73 39.82 32.14 38.01 31.55 39.82 29.64 39.82 31.19 40.95 30.6 42.76 32.14 41.64 33.69 42.76 33.1 40.95" style="fill:#fff"/><polygon points="40.24 40.95 41.79 39.82 39.88 39.82 39.29 38.01 38.7 39.82 36.79 39.82 38.33 40.95 37.74 42.76 39.29 41.64 40.83 42.76 40.24 40.95" style="fill:#fff"/><polygon points="15.24 9.54 16.79 8.41 14.88 8.41 14.29 6.6 13.7 8.41 11.79 8.41 13.33 9.54 12.74 11.35 14.29 10.23 15.83 11.35 15.24 9.54" style="fill:#fff"/><polygon points="22.38 9.54 23.93 8.41 22.02 8.41 21.43 6.6 20.84 8.41 18.93 8.41 20.47 9.54 19.88 11.35 21.43 10.23 22.97 11.35 22.38 9.54" style="fill:#fff"/><polygon points="29.53 9.54 31.07 8.41 29.16 8.41 28.57 6.6 27.98 8.41 26.07 8.41 27.62 9.54 27.03 11.35 28.57 10.23 30.12 11.35 29.53 9.54" style="fill:#fff"/><polygon points="36.67 9.54 38.21 8.41 36.3 8.41 35.71 6.6 35.12 8.41 33.21 8.41 34.76 9.54 34.17 11.35 35.71 10.23 37.26 11.35 36.67 9.54" style="fill:#fff"/><polygon points="43.81 9.54 45.36 8.41 43.45 8.41 42.86 6.6 42.27 8.41 40.36 8.41 41.9 9.54 41.31 11.35 42.86 10.23 44.4 11.35 43.81 9.54" style="fill:#fff"/><polygon points="8.1 18.51 9.64 17.39 7.73 17.39 7.14 15.57 6.55 17.39 4.64 17.39 6.19 18.51 5.6 20.33 7.14 19.2 8.69 20.33 8.1 18.51" style="fill:#fff"/><polygon points="15.24 18.51 16.79 17.39 14.88 17.39 14.29 15.57 13.7 17.39 11.79 17.39 13.33 18.51 12.74 20.33 14.29 19.2 15.83 20.33 15.24 18.51" style="fill:#fff"/><polygon points="22.38 18.51 23.93 17.39 22.02 17.39 21.43 15.57 20.84 17.39 18.93 17.39 20.47 18.51 19.88 20.33 21.43 19.2 22.97 20.33 22.38 18.51" style="fill:#fff"/><polygon points="29.53 18.51 31.07 17.39 29.16 17.39 28.57 15.57 27.98 17.39 26.07 17.39 27.62 18.51 27.03 20.33 28.57 19.2 30.12 20.33 29.53 18.51" style="fill:#fff"/><polygon points="36.67 18.51 38.21 17.39 36.3 17.39 35.71 15.57 35.12 17.39 33.21 17.39 34.76 18.51 34.17 20.33 35.71 19.2 37.26 20.33 36.67 18.51" style="fill:#fff"/><polygon points="43.81 18.51 45.36 17.39 43.45 17.39 42.86 15.57 42.27 17.39 40.36 17.39 41.9 18.51 41.31 20.33 42.86 19.2 44.4 20.33 43.81 18.51" style="fill:#fff"/><polygon points="8.1 27.48 9.64 26.36 7.73 26.36 7.14 24.55 6.55 26.36 4.64 26.36 6.19 27.48 5.6 29.3 7.14 28.18 8.69 29.3 8.1 27.48" style="fill:#fff"/><polygon points="15.24 27.48 16.79 26.36 14.88 26.36 14.29 24.55 13.7 26.36 11.79 26.36 13.33 27.48 12.74 29.3 14.29 28.18 15.83 29.3 15.24 27.48" style="fill:#fff"/><polygon points="22.38 27.48 23.93 26.36 22.02 26.36 21.43 24.55 20.84 26.36 18.93 26.36 20.47 27.48 19.88 29.3 21.43 28.18 22.97 29.3 22.38 27.48" style="fill:#fff"/><polygon points="29.53 27.48 31.07 26.36 29.16 26.36 28.57 24.55 27.98 26.36 26.07 26.36 27.62 27.48 27.03 29.3 28.57 28.18 30.12 29.3 29.53 27.48" style="fill:#fff"/><polygon points="36.67 27.48 38.21 26.36 36.3 26.36 35.71 24.55 35.12 26.36 33.21 26.36 34.76 27.48 34.17 29.3 35.71 28.18 37.26 29.3 36.67 27.48" style="fill:#fff"/><polygon points="43.81 27.48 45.36 26.36 43.45 26.36 42.86 24.55 42.27 26.36 40.36 26.36 41.9 27.48 41.31 29.3 42.86 28.18 44.4 29.3 43.81 27.48" style="fill:#fff"/><polygon points="8.1 36.46 9.64 35.34 7.73 35.34 7.14 33.52 6.55 35.34 4.64 35.34 6.19 36.46 5.6 38.27 7.14 37.15 8.69 38.27 8.1 36.46" style="fill:#fff"/><polygon points="15.24 36.46 16.79 35.34 14.88 35.34 14.29 33.52 13.7 35.34 11.79 35.34 13.33 36.46 12.74 38.27 14.29 37.15 15.83 38.27 15.24 36.46" style="fill:#fff"/><polygon points="22.38 36.46 23.93 35.34 22.02 35.34 21.43 33.52 20.84 35.34 18.93 35.34 20.47 36.46 19.88 38.27 21.43 37.15 22.97 38.27 22.38 36.46" style="fill:#fff"/><polygon points="29.53 36.46 31.07 35.34 29.16 35.34 28.57 33.52 27.98 35.34 26.07 35.34 27.62 36.46 27.03 38.27 28.57 37.15 30.12 38.27 29.53 36.46" style="fill:#fff"/><polygon points="36.67 36.46 38.21 35.34 36.3 35.34 35.71 33.52 35.12 35.34 33.21 35.34 34.76 36.46 34.17 38.27 35.71 37.15 37.26 38.27 36.67 36.46" style="fill:#fff"/><polygon points="43.81 36.46 45.36 35.34 43.45 35.34 42.86 33.52 42.27 35.34 40.36 35.34 41.9 36.46 41.31 38.27 42.86 37.15 44.4 38.27 43.81 36.46" style="fill:#fff"/><polygon points="8.1 45.43 9.64 44.31 7.73 44.31 7.14 42.49 6.55 44.31 4.64 44.31 6.19 45.43 5.6 47.25 7.14 46.13 8.69 47.25 8.1 45.43" style="fill:#fff"/><polygon points="15.24 45.43 16.79 44.31 14.88 44.31 14.29 42.49 13.7 44.31 11.79 44.31 13.33 45.43 12.74 47.25 14.29 46.13 15.83 47.25 15.24 45.43" style="fill:#fff"/><polygon points="22.38 45.43 23.93 44.31 22.02 44.31 21.43 42.49 20.84 44.31 18.93 44.31 20.47 45.43 19.88 47.25 21.43 46.13 22.97 47.25 22.38 45.43" style="fill:#fff"/><polygon points="29.53 45.43 31.07 44.31 29.16 44.31 28.57 42.49 27.98 44.31 26.07 44.31 27.62 45.43 27.03 47.25 28.57 46.13 30.12 47.25 29.53 45.43" style="fill:#fff"/><polygon points="36.67 45.43 38.21 44.31 36.3 44.31 35.71 42.49 35.12 44.31 33.21 44.31 34.76 45.43 34.17 47.25 35.71 46.13 37.26 47.25 36.67 45.43" style="fill:#fff"/><polygon points="43.81 45.43 45.36 44.31 43.45 44.31 42.86 42.49 42.27 44.31 40.36 44.31 41.9 45.43 41.31 47.25 42.86 46.13 44.4 47.25 43.81 45.43" style="fill:#fff"/></svg>