<svg id="Calque_1" data-name="Calque 1" xmlns="http://www.w3.org/2000/svg" viewBox="0 0 100 100"><title>language</title><g id="en"><rect width="100" height="100" style="fill:#003967"/><polygon points="100 62 100 38 76.78 38 100 17.27 100 0 92.25 0 62 27.08 62 0 38 0 38 27.08 8.25 0 0 0 0 17.12 23.22 38 0 38 0 62 23.22 62 0 82.64 0 100 8.06 100 38 72.92 38 100 62 100 62 72.92 92.03 100 100 100 100 82.7 76.78 62 100 62" style="fill:#fff"/><polygon points="0 0 4.93 0 38 29.78 38 38 26.21 38 0 14.4 0 0" style="fill:#c33"/><polygon points="100 0 95.07 0 62 29.78 62 38 73.79 38 100 14.4 100 0" style="fill:#c33"/><polygon points="100 85.6 100 100 95.07 100 62 70.22 62 62 73.79 62 100 85.6" style="fill:#c33"/><polygon points="4.93 100 38 70.22 38 62 26.21 62 0 85.6 0 100 4.93 100" style="fill:#c33"/><polygon points="100 40 60 40 60 0 40 0 40 40 0 40 0 60 40 60 40 100 60 100 60 60 100 60 100 40" style="fill:#c33"/></g></svg>