<?xml version="1.0" encoding="utf-8"?>
<!-- Generator: Adobe Illustrator 22.1.0, SVG Export Plug-In . SVG Version: 6.00 Build 0)  -->
<svg version="1.1" id="Calque_1" xmlns="http://www.w3.org/2000/svg" xmlns:xlink="http://www.w3.org/1999/xlink" x="0px" y="0px"
	 viewBox="0 0 100 100" style="enable-background:new 0 0 100 100;" xml:space="preserve">
<style type="text/css">
	.st0{fill:#FFFFFF;}
	.st1{fill:#003967;}
	.st2{fill:#CC3333;}
	.st3{fill:#FFCC00;}
</style>
<g id="en">
	<rect class="st1" width="100" height="100"/>
	<polygon class="st0" points="100,62 100,38 76.8,38 100,17.3 100,0 92.2,0 62,27.1 62,0 38,0 38,27.1 8.2,0 0,0 0,17.1 23.2,38 
		0,38 0,62 23.2,62 0,82.6 0,100 8.1,100 38,72.9 38,100 62,100 62,72.9 92,100 100,100 100,82.7 76.8,62 	"/>
	<g>
		<polygon class="st2" points="0,0 4.9,0 38,29.8 38,38 26.2,38 0,14.4 		"/>
		<polygon class="st2" points="100,0 95.1,0 62,29.8 62,38 73.8,38 100,14.4 		"/>
		<polygon class="st2" points="100,85.6 100,100 95.1,100 62,70.2 62,62 73.8,62 		"/>
		<polygon class="st2" points="4.9,100 38,70.2 38,62 26.2,62 0,85.6 0,100 		"/>
		<polygon class="st2" points="100,40 60,40 60,0 40,0 40,40 0,40 0,60 40,60 40,100 60,100 60,60 100,60 		"/>
	</g>
</g>
</svg>
