<?xml version="1.0" encoding="utf-8"?>
<!-- Generator: Adobe Illustrator 22.1.0, SVG Export Plug-In . SVG Version: 6.00 Build 0)  -->
<svg version="1.1" id="Calque_1" xmlns="http://www.w3.org/2000/svg" xmlns:xlink="http://www.w3.org/1999/xlink" x="0px" y="0px"
	 viewBox="0 0 100 100" style="enable-background:new 0 0 100 100;" xml:space="preserve">
<g>
	<path d="M36.9,64.8C37,64.8,37,64.8,36.9,64.8c0.1,0,0.1,0,0.2,0c0-0.1,0-0.1,0-0.2c-0.7-0.5-0.9-1.5-0.4-2.2
		c0.2-0.3,0.5-0.5,0.8-0.5c0.3-0.1,0.7,0,0.9,0.2c0.2,0.1,0.4,0.4,0.4,0.6c0,0.3,0,0.5-0.2,0.7c-0.2,0.3-0.7,0.4-1.1,0.2
		c-0.1-0.1-0.2-0.2-0.2-0.4c0-0.2,0-0.3,0.1-0.4c0.1-0.2,0.4-0.3,0.6-0.1c0.1,0,0.1,0,0.2,0c0-0.1,0-0.1,0-0.2
		c-0.3-0.2-0.7-0.1-1,0.2c-0.1,0.2-0.2,0.4-0.1,0.6s0.2,0.4,0.3,0.5c0.5,0.3,1.1,0.2,1.4-0.3c0.2-0.3,0.3-0.6,0.2-0.9
		c-0.1-0.3-0.2-0.6-0.5-0.8c-0.7-0.5-1.6-0.3-2.1,0.4C35.9,63,36.1,64.2,36.9,64.8z"/>
	<path d="M30.6,29.4c-1.6-1.5-3.4-1.5-5,0c-0.2,0.2-0.2,0.5,0,0.7c0.2,0.2,0.5,0.2,0.7,0c1.2-1.1,2.4-1.2,3.6,0
		c0.1,0.1,0.2,0.1,0.3,0.1c0.1,0,0.3-0.1,0.4-0.2C30.9,29.9,30.8,29.6,30.6,29.4z"/>
	<path d="M37.2,30.1c1.2-1.1,2.4-1.2,3.6,0c0.1,0.1,0.2,0.1,0.3,0.1c0.1,0,0.3-0.1,0.4-0.2c0.2-0.2,0.2-0.5,0-0.7
		c-1.6-1.5-3.4-1.5-5,0c-0.2,0.2-0.2,0.5,0,0.7C36.7,30.3,37,30.3,37.2,30.1z"/>
	<path d="M33.6,31.8c0.3,0,0.5-0.2,0.5-0.5v-1.8c0-0.3-0.2-0.5-0.5-0.5s-0.5,0.2-0.5,0.5v1.8C33.1,31.6,33.3,31.8,33.6,31.8z"/>
	<path d="M37.1,33.8c0.2-0.2,0.3-0.5,0.1-0.7c-0.2-0.2-0.5-0.3-0.7-0.1c-1.8,1.4-3.5,1.5-5.4,0.4c-0.2-0.1-0.5-0.1-0.7,0.2
		c-0.1,0.2-0.1,0.5,0.2,0.7c1,0.6,2,0.9,3,0.9C34.8,35.2,36,34.7,37.1,33.8z"/>
	<path d="M45,57.7l-0.1,0c1.3-2.3,2.1-5.1,2.3-8c1-0.3,1.9-0.6,2.5-0.9c0.1-0.1,0.3-0.2,0.3-0.3c1-2.1,0.6-4.7,0-7.9
		c-0.3-1.5-0.5-3.3-0.7-5.2c-0.1-1.4,0.1-3,0.3-4.7c0.2-1.6,0.4-3.2,0.4-4.9c0-9.1-7.4-16.5-16.5-16.5c-8.7,0-16,6.8-16.4,15.5
		c-0.1,0.4-0.1,0.7-0.1,1c0,2.3,0,4.4,0.1,6.3c0.1,6.5,0.2,11.2-1.2,17.4c-0.1,0.3,0.1,0.7,0.4,0.8c1,0.6,2.8,1,5.1,1.2
		c0.5,2.1,1.4,4.1,2.4,5.8l0,0c-1.6,5.7-2.2,9.6-2.9,13.3c-0.9,5.4-1.8,10.6-5.4,20.5c-0.1,0.3,0,0.7,0.3,0.9
		c3.1,2,9.7,2.9,16.4,2.9c7.8,0,16-1.3,19.5-3.8c0.3-0.2,0.4-0.5,0.3-0.9C48.4,79.9,47.4,75.4,45,57.7z M18.7,32.1
		c0-1.9-0.1-4-0.1-6.4c0-0.2,0-0.4,0-0.8c0.4-7.9,7-14.2,14.9-14.2c8.3,0,15,6.7,15,15c0,1.6-0.2,3.2-0.4,4.7
		c-0.2,1.8-0.4,3.4-0.3,5c0.2,1.9,0.4,3.7,0.7,5.3c0.5,2.9,0.8,5.1,0.2,6.8c-0.4,0.2-0.9,0.4-1.5,0.6c0-4.6-1.8-8.4-4.9-10.3
		c1.7-2,2.7-4.6,2.7-7.4c0-0.9-0.1-1.8-0.3-2.7c0-0.2-0.2-0.3-0.4-0.4c-0.1,0-5.2-1.5-5.1-9.7c0-0.2-0.2-0.5-0.4-0.5
		c-0.2,0-0.5,0.1-0.6,0.3c-1.3,3.8-5.1,4.8-8.7,5.6c-3.2,0.8-6.2,1.5-7.2,4.3c-0.3,1-0.4,1.9-0.4,2.9c0,3.2,1.4,6.2,3.5,8.3
		c-1.4,0.4-2.5,1.2-3.4,2.4c-1.4,2.1-1.8,5.3-1.1,8.9c-1.8-0.2-2.9-0.5-3.5-0.8C18.9,43.2,18.8,38.3,18.7,32.1z M23.1,30.5
		c0-0.9,0.1-1.8,0.3-2.7c0.8-2.3,3.4-2.9,6.5-3.7c3.1-0.8,6.5-1.6,8.5-4.5c0.6,6.4,4.4,8.2,5.5,8.6c0.1,0.7,0.2,1.4,0.2,2.2
		c0,5.8-4.7,10.5-10.5,10.5S23.1,36.3,23.1,30.5z M23,41.7c0.8-1.2,2-1.9,3.5-2.2c1.9,1.5,4.4,2.4,7,2.4c3.1,0,6-1.3,8.1-3.3
		c3.1,1.8,4.8,5.6,4.6,10.4c-0.1,3-1,6.1-2.4,8.4c-0.1,0.1-0.2,0.2-0.2,0.3l-0.1,0c0,0,0,0.1,0,0.1c-0.5,0.8-1.1,1.5-1.7,2
		c-0.1-1.2-0.8-2.1-1.8-2.5c0,0,0-0.1,0-0.1c0-0.2,0-0.3-0.1-0.5c2.3-3.4,3.1-7.4,2.4-12.6c0-0.3-0.3-0.5-0.6-0.4
		c-0.3,0-0.5,0.3-0.4,0.6c0.1,0.4,0.1,0.7,0.1,1.1c-2.4-1.1-4.8-0.8-7,0.8c-3-1.6-5.6-1.5-7.9,0.2c0-0.5-0.1-0.9-0.1-1.4
		c0-0.3-0.3-0.5-0.5-0.5c-0.3,0-0.5,0.3-0.5,0.5c0.3,4,1.1,9,4.3,12.8c-1.1,0.2-2,1.2-2.1,2.4c-1-0.7-1.9-1.8-2.7-3
		c-1.2-1.9-2.2-4.2-2.7-6.6C21.4,47,21.7,43.7,23,41.7z M39.5,55.7c-0.5-0.7-1.3-1.2-2.2-1.2c-0.8,0-1.5,0.4-2,0.9
		c-0.5-0.4-1.1-0.6-1.7-0.6c-1.5,0-2.7,1.2-2.8,2.7c-2.6-2.8-3.6-6.5-4-9.9c2.1-1.9,4.6-2,7.5-0.3c0.2,0.1,0.4,0.1,0.6,0
		c2.2-1.7,4.4-1.9,6.8-0.7C41.7,50.2,41.1,53.1,39.5,55.7z M35.7,61c-0.1,0.1-0.2,0.2-0.3,0.3c0,0-0.1,0.1-0.1,0.1
		c-0.2,0.2-0.4,0.5-0.5,0.8c-0.3,0.1-0.6,0.1-0.9,0.1c-0.2-0.1-0.4-0.1-0.6-0.2c0,0-0.1-0.1-0.1-0.1c0,0,0,0,0,0c0,0,0.1,0,0.1-0.1
		c0-0.1,0-0.1,0-0.2c-0.4-0.2-0.6-0.6-0.7-1c-0.1-0.4,0-0.8,0.3-1.2c0.4-0.6,1.2-0.7,1.8-0.3c0.2,0.1,0.4,0.4,0.4,0.6
		c0,0.3,0,0.5-0.2,0.7c-0.1,0.2-0.3,0.3-0.5,0.3c-0.2,0-0.4,0-0.6-0.1c-0.1-0.1-0.2-0.2-0.2-0.4s0-0.3,0.1-0.4
		c0.1-0.2,0.4-0.3,0.6-0.1c0.1,0,0.1,0,0.2,0c0-0.1,0-0.1,0-0.2c-0.3-0.2-0.7-0.1-1,0.2c-0.3,0.4-0.2,0.9,0.2,1.2
		c0.2,0.2,0.5,0.2,0.8,0.2c0.3,0,0.5-0.2,0.6-0.4c0.2-0.3,0.3-0.6,0.2-0.9s-0.2-0.6-0.5-0.8c-0.7-0.5-1.6-0.3-2.1,0.4
		c-0.6,0.8-0.4,1.9,0.4,2.5c-0.1-0.1-0.3-0.2-0.4-0.4c0,0,0,0,0,0c-0.1-0.1-0.2-0.2-0.3-0.4c0,0,0-0.1-0.1-0.1c0-0.1,0-0.1-0.1-0.2
		c0-0.1-0.1-0.3-0.1-0.4c0-0.1,0-0.3,0.1-0.4c0,0,0,0,0,0c0-0.1,0.1-0.3,0.2-0.4c0,0,0,0,0,0c0.1-0.2,0.3-0.4,0.4-0.6c0,0,0,0,0,0
		c0.1-0.1,0.1-0.1,0.2-0.2c0,0,0.1-0.1,0.1-0.1c0.1,0,0.1-0.1,0.2-0.1c0.1,0,0.1-0.1,0.2-0.1c0,0,0.1,0,0.1,0c0.1,0,0.2,0,0.3,0
		c0,0,0.1,0,0.1,0c0,0,0.1,0,0.1,0c0.2,0,0.4,0.1,0.7,0.2l0,0c0,0,0,0,0,0l0,0c0,0,0,0,0,0c0.5,0.2,0.8,0.6,1,1.1c0,0,0,0,0,0
		c0.1,0.2,0.1,0.4,0.1,0.7c0,0.1,0,0.2,0,0.4C36,60.7,35.9,60.8,35.7,61C35.7,60.9,35.7,61,35.7,61z M31.9,58.4
		c-0.1-0.2-0.2-0.5-0.2-0.7c0-1,0.8-1.8,1.8-1.8c0.4,0,0.8,0.2,1.2,0.4c-0.1,0.2-0.1,0.3-0.1,0.5c0,0.1,0,0.2,0,0.3
		c-0.7-0.5-1.6-0.3-2.1,0.4c-0.2,0.3-0.3,0.6-0.3,0.9c0,0-0.1,0.1-0.1,0.1c0,0,0,0,0,0C32,58.4,32,58.4,31.9,58.4
		C31.9,58.4,31.9,58.4,31.9,58.4z M34.2,57.4c-0.1,0-0.2,0-0.3,0c-0.1,0-0.2,0-0.3,0c-0.2,0-0.4,0.1-0.6,0.2c0,0,0,0,0,0
		c-0.2,0.1-0.4,0.2-0.6,0.3c0,0,0,0-0.1,0.1c0,0,0,0,0,0c0-0.2,0.1-0.3,0.2-0.4c0.4-0.6,1.2-0.7,1.8-0.3c0,0,0.1,0.1,0.1,0.1
		c0,0,0,0,0,0c0,0-0.1,0-0.1,0C34.3,57.4,34.3,57.4,34.2,57.4z M39.7,60.8c-0.1-0.1-0.2-0.2-0.4-0.2c-0.1,0-0.1-0.1-0.2-0.1
		c-0.1-0.1-0.3-0.1-0.4-0.2c0,0-0.1,0-0.1,0c0-0.1,0-0.1,0.1-0.2c0.1-0.2,0.4-0.3,0.6-0.1c0.1,0,0.1,0,0.2,0c0-0.1,0-0.1,0-0.2
		c-0.3-0.2-0.7-0.1-1,0.2c-0.1,0.1-0.1,0.2-0.1,0.3c-0.2,0-0.3-0.1-0.5-0.1c-0.1,0-0.1,0-0.2,0c0-0.2,0.1-0.4,0.2-0.5
		c0.4-0.6,1.2-0.7,1.8-0.3c0.4,0.3,0.6,0.9,0.3,1.4C39.8,60.7,39.7,60.8,39.7,60.8z M37.6,57.7c-0.2,0.1-0.4,0.2-0.6,0.4
		c0,0,0,0,0,0c0,0-0.1,0.1-0.1,0.1c-0.1-0.1-0.2-0.2-0.2-0.3c0-0.2,0-0.3,0.1-0.4c0.1-0.1,0.2-0.2,0.3-0.2c0.1,0,0.2,0,0.3,0.1
		c0.1,0,0.1,0,0.2,0c0-0.1,0-0.1,0-0.2c-0.3-0.2-0.7-0.1-1,0.2c-0.1,0.2-0.2,0.4-0.1,0.6c0,0.2,0.1,0.4,0.3,0.5
		c-0.1,0.1-0.1,0.1-0.2,0.2c0,0,0,0,0,0c-0.1-0.2-0.3-0.3-0.4-0.5c0,0-0.1-0.1-0.1-0.1c-0.1-0.1-0.2-0.2-0.3-0.2
		c0-0.3,0.1-0.6,0.3-0.8c0.4-0.6,1.2-0.7,1.8-0.3c0.3,0.2,0.4,0.5,0.4,0.8C38,57.5,37.8,57.5,37.6,57.7
		C37.7,57.6,37.6,57.6,37.6,57.7z M39,57.3c-0.2,0-0.4,0-0.6,0.1c0-0.4-0.2-0.7-0.5-0.9c-0.3-0.2-0.7-0.3-1.1-0.2
		c-0.4,0.1-0.7,0.3-1,0.6c-0.1,0.2-0.2,0.5-0.3,0.7c0-0.1,0-0.1,0-0.2c0-0.1,0-0.3,0.1-0.4c0,0,0,0,0,0c0-0.1,0.1-0.3,0.2-0.4
		c0,0,0,0,0,0c0.3-0.5,0.9-0.9,1.5-0.9C38.2,55.6,39,56.3,39,57.3C39,57.3,39,57.3,39,57.3C39,57.3,39,57.3,39,57.3z M31.4,59.3
		c0,0,0.1,0,0.1,0.1c0,0,0,0.1,0,0.1c0,0.1-0.1,0.2-0.1,0.4c0,0.1,0,0.1,0,0.2c-0.1-0.1-0.2-0.3-0.3-0.3c-0.3-0.2-0.7-0.3-1.1-0.2
		c-0.4,0.1-0.7,0.3-1,0.6c-0.1,0.2-0.2,0.4-0.3,0.6c0.1-0.9,0.8-1.6,1.7-1.6C30.8,58.9,31.1,59.1,31.4,59.3z M29.1,61.8
		c-0.3-0.5-0.3-1.2,0.1-1.7c0.2-0.3,0.5-0.5,0.8-0.5c0.3-0.1,0.7,0,0.9,0.2c0.4,0.3,0.6,0.9,0.3,1.4c-0.2,0.3-0.7,0.4-1.1,0.2
		c-0.1-0.1-0.2-0.2-0.2-0.4s0-0.3,0.1-0.4c0.1-0.1,0.2-0.2,0.3-0.2c0.1,0,0.2,0,0.3,0.1c0.1,0,0.1,0,0.2,0c0-0.1,0-0.1,0-0.2
		c-0.2-0.1-0.3-0.1-0.5-0.1c-0.2,0-0.3,0.1-0.4,0.3c-0.3,0.4-0.2,0.9,0.2,1.2c0.5,0.3,1.1,0.2,1.4-0.3c0-0.1,0.1-0.1,0.1-0.2
		c0.1,0.3,0.2,0.5,0.3,0.7c-0.3,0.4-0.8,0.6-1.3,0.6C29.9,62.5,29.4,62.2,29.1,61.8z M32.4,63c-0.3,0.1-0.6,0.3-0.7,0.5
		c-0.6,0.8-0.4,2,0.5,2.6c0,0,0,0,0.1,0c0,0,0.1,0,0.1-0.1c0-0.1,0-0.1,0-0.2c-0.7-0.5-0.9-1.5-0.4-2.2c0.2-0.3,0.5-0.5,0.8-0.5
		c0.3-0.1,0.7,0,0.9,0.2c0.2,0.1,0.4,0.4,0.4,0.6c0,0.3,0,0.5-0.2,0.7c-0.2,0.3-0.7,0.4-1.1,0.2c-0.1-0.1-0.2-0.2-0.2-0.4
		c0-0.2,0-0.3,0.1-0.4c0.1-0.2,0.4-0.3,0.6-0.1c0.1,0,0.1,0,0.2,0c0-0.1,0-0.1,0-0.2c-0.3-0.2-0.7-0.1-1,0.2
		c-0.1,0.2-0.2,0.4-0.1,0.6s0.2,0.4,0.3,0.5c0.5,0.3,1.1,0.2,1.4-0.3c0.2-0.3,0.3-0.6,0.2-0.9c-0.1-0.3-0.2-0.5-0.4-0.7
		c0.6,0.4,1,1,1,1.8c0,1.1-0.9,2.1-2.1,2.1s-2.1-0.9-2.1-2.1C30.7,64,31.4,63.2,32.4,63z M35.6,63.4c0-0.2,0.1-0.5,0.1-0.7
		c0,0,0,0,0,0c0.2-0.5,0.5-1,1-1.2c0,0,0,0,0,0c0.1,0,0.1-0.1,0.2-0.1c0,0,0,0,0,0c1.1-0.4,2.3,0,2.8,1.1c0,0,0,0,0,0
		c0.1,0.3,0.2,0.6,0.2,1c0,1.2-1,2.2-2.2,2.2C36.6,65.5,35.6,64.6,35.6,63.4z M39.9,61c0.1,0,0.1-0.1,0.2-0.1
		c0.4-0.6,0.2-1.3-0.3-1.7c-0.7-0.5-1.6-0.3-2.1,0.4c-0.1,0.2-0.2,0.5-0.3,0.7c-0.1,0-0.1,0-0.2,0c0,0,0-0.1,0-0.1
		c0-0.2,0-0.3,0.1-0.5c0,0,0,0,0,0c0.1-0.4,0.3-0.7,0.5-0.9c0,0,0,0,0,0c0.1-0.1,0.2-0.1,0.3-0.2c0,0,0,0,0,0c0.1,0,0.2-0.1,0.3-0.1
		c0,0,0.1,0,0.1,0c0.1,0,0.2-0.1,0.2-0.1c0,0,0.1,0,0.1,0c0.1,0,0.1,0,0.2,0c0,0,0.1,0,0.1,0c0.1,0,0.2,0,0.3,0
		c0.8,0.2,1.5,0.9,1.5,1.8c0,0.5-0.2,1-0.5,1.3c0,0,0,0,0,0C40.2,61.3,40,61.1,39.9,61z M17.1,91.1c3.5-9.7,4.4-14.8,5.3-20.2
		c0.6-3.4,1.2-7,2.5-12c0.9,1.2,1.9,2.1,2.9,2.7c0.4,1,1.3,1.7,2.4,1.8c-0.3,0.5-0.5,1-0.5,1.6c0,1.7,1.4,3.1,3.1,3.1
		c1.4,0,2.6-1,3-2.3c0.6,0.5,1.2,0.7,2,0.7c1.8,0,3.2-1.4,3.2-3.2c0-0.4-0.1-0.7-0.2-1c0.2-0.2,0.5-0.4,0.6-0.7
		c0.8-0.6,1.6-1.3,2.3-2.2c2.2,16.2,3.3,21,6.7,30.9C43.9,94.2,23.9,94.7,17.1,91.1z"/>
	<path d="M63,25.3c0.1,0,0.3-0.1,0.4-0.2c0.2-0.2,0.2-0.5,0-0.7c-1.6-1.5-3.4-1.5-5,0c-0.2,0.2-0.2,0.5,0,0.7c0.2,0.2,0.5,0.2,0.7,0
		c1.2-1.2,2.4-1.2,3.6,0C62.7,25.3,62.8,25.3,63,25.3z"/>
	<path d="M69.8,25.2c1.2-1.2,2.4-1.2,3.6,0c0.1,0.1,0.2,0.1,0.3,0.1c0.1,0,0.3-0.1,0.4-0.2c0.2-0.2,0.2-0.5,0-0.7
		c-1.6-1.5-3.4-1.5-5,0c-0.2,0.2-0.2,0.5,0,0.7C69.3,25.4,69.6,25.4,69.8,25.2z"/>
	<path d="M66.2,29.3c0.3,0,0.5-0.2,0.5-0.5v-3.2c0-0.3-0.2-0.5-0.5-0.5s-0.5,0.2-0.5,0.5v3.2C65.7,29,65.9,29.3,66.2,29.3z"/>
	<path d="M66.4,32.5c1.4,0,2.9-0.4,3.9-1.3c0.2-0.2,0.3-0.5,0.1-0.7c-0.2-0.2-0.5-0.3-0.7-0.1c-1.8,1.4-5,1.4-6.4,0
		c-0.2-0.2-0.5-0.2-0.7,0c-0.2,0.2-0.2,0.5,0,0.7C63.5,32,65,32.5,66.4,32.5z"/>
	<path d="M83.4,55.1c0.1-9.4,0.1-19.1-7.4-21c1.4-0.2,3-1.2,4.4-2.8c2.2-2.4,4.5-6.8,4.1-11.7c-0.6-7.2-5.5-11.4-9.3-12.5
		c0-0.6-0.3-1.1-0.6-1.3c-0.2-0.2-0.5-0.3-0.8-0.2l-1.5,0.6c-0.2-0.1-0.5-0.4-1.1-1.2c-0.2-0.2-0.5-0.3-0.7-0.3
		c-0.3,0.1-0.5,0.3-0.6,0.6c-0.1,0.2-0.1,0.4-0.1,0.6c-1.6-0.8-3.8-0.3-6.6,0.4c-2.7,0.7-5.7,1.5-8.9,1.2c-0.2,0-0.4,0.1-0.6,0.2
		s-0.2,0.4-0.2,0.6c0,0.8,0.4,1.3,0.7,1.7c-0.1,0-0.3,0.1-0.4,0.1c-0.6,0.1-1.2,0.2-1.9,0.6c-0.3,0.2-0.4,0.5-0.4,0.8
		c0.2,1.2,0.5,1.9,1,2.5c-1.6,4.5-1.4,12.6,1.1,16.2c1,1.5,2.2,1.9,3.1,1.9c0,0.1,0.1,0.1,0.1,0.2c0.5,0.8,1.2,1.5,1.9,2.1
		c-6.9,2.7-7.1,11.9-7.4,21.6c0,1.8-0.1,3.6-0.2,5.3c0,0.2,0.1,0.4,0.2,0.6c0.1,0.1,0.3,0.2,0.5,0.2v1.6c0,0.3,0.2,0.5,0.5,0.5
		l0.1,0c0.1,2.6,1.1,2.9,3.9,2.9l0.2,23.5c0,0.1,0,0.3,0.1,0.4c-0.2,0.6-0.4,1.7,0,2.5c0.2,0.4,0.5,0.7,1,0.9c0.9,0.3,2.4,0.6,4,0.6
		c1.2,0,2.5-0.2,3.6-0.6c0.8-0.3,1.3-0.8,1.5-1.5c0.2-0.7,0-1.5-0.2-1.9c0-0.1,0.1-0.2,0.1-0.3c-0.4-9.6-0.3-20,0.5-22.7
		c0.9,2.7,1.2,13.1,1.1,22.7c0,0.1,0,0.2,0.1,0.3c-0.4,1-0.7,2.5,0.4,3.2c0.7,0.4,2.6,0.7,4.5,0.7c1.8,0,3.6-0.3,4.3-1
		c0.4-0.4,0.6-0.8,0.6-1.3c0-0.7-0.4-1.4-0.8-1.9c0,0,0,0,0-0.1l0.2-23.4c0.3,0,0.5,0,0.8,0c2.3,0,3.2-0.7,3.7-2.5h0.2
		c0.3,0,0.5-0.2,0.5-0.5l0-1.3l0,0c0,0,0,0,0,0c0.2,0,0.4-0.1,0.5-0.2c0.2-0.1,0.2-0.4,0.2-0.6C83.3,59.9,83.3,57.5,83.4,55.1z
		 M81.9,55.1c0,2.1,0,4.2,0,6.3l-4.8-0.3l0,0.4c0,0,0,0,0,0V49.9c0-0.3-0.2-0.5-0.5-0.5s-0.5,0.2-0.5,0.5v12.7
		c-1.6,1.4-4.3,1.6-7.8,1.6c-0.1-1.5-0.5-3.4-1.1-5.5c-0.7-3-1.5-6.4-1.5-9.4c4.8-1.3,10.3-4.8,11.7-10.6c0.1-0.2-0.1-0.5-0.3-0.6
		l-1.4-0.6l2-1C82,39.6,81.9,47.2,81.9,55.1z M66.7,37.3c0.2,0,0.4,0,0.6,0h0.2l0.1,1.2l-1.2,0v-1.2C66.5,37.3,66.6,37.3,66.7,37.3z
		 M74.4,38.1l2,0.8c-1.2,4-4.6,6.8-8,8.4c3-3.2,4.2-8.3,4.7-11.6c0.3-0.2,0.7-0.4,1-0.6l0,0.1c1.1,0.1,2,0.3,2.8,0.7l-2.4,1.2
		c-0.2,0.1-0.3,0.3-0.3,0.5C74.1,37.8,74.2,38,74.4,38.1z M67.5,39.6c0.4,0.1,0.7,0.2,1.1,0.4c0.5,0.2,1.1,0.5,1.8,0.5
		c0.2,0,0.4,0,0.6-0.1c0,0,0.1,0,0.1,0c-0.7,2.3-1.8,4.7-3.5,6.4V39.6z M71.6,38.2c0-0.1-0.1-0.2-0.1-0.3c-0.2-0.5-0.4-1.1-0.3-1.4
		c0.2-0.1,0.5-0.2,0.7-0.3C71.8,36.9,71.7,37.5,71.6,38.2z M70.2,36.8c0,0.5,0.2,1,0.4,1.4c0.1,0.3,0.3,0.9,0.3,1.1c0,0,0,0-0.1,0
		c-0.6,0.1-1.1-0.1-1.7-0.4c-0.1-0.1-0.3-0.1-0.4-0.2l-0.1-1.7C69,37.1,69.6,37,70.2,36.8z M65.4,38.9c-0.1,0-0.2,0.1-0.3,0.1
		c-0.7,0.3-1.1,0.5-1.6,0.2c-0.2-0.1-0.3-0.2,0-1.1c0.1-0.4,0.3-0.8,0.3-1.2c0.5,0.1,1,0.2,1.5,0.3V38.9z M62.8,36.7
		c0.1,0.3,0,0.7-0.2,1.2c0,0.1-0.1,0.3-0.1,0.4c-0.2-0.7-0.4-1.4-0.5-1.9C62.3,36.5,62.5,36.6,62.8,36.7z M65.5,39.9
		c0.3-0.1,0.7-0.3,1-0.4V47c-1.3-1.5-2.6-4.3-3.5-6.8C64,40.6,64.8,40.2,65.5,39.9z M54.7,29.3c-2.1-3.1-2.5-11-0.7-15.3
		c0.1-0.3,0-0.7-0.2-0.9c-0.4-0.3-0.6-0.7-0.8-1.4c0.3-0.1,0.6-0.1,0.9-0.2c0.5-0.1,1.1-0.2,1.7-0.5c0.4-0.2,0.5-0.6,0.3-1
		c-0.1-0.3-0.3-0.6-0.5-0.8c-0.1-0.1-0.1-0.2-0.2-0.2c3,0.1,5.9-0.7,8.2-1.3c2.4-0.6,4.6-1.2,5.6-0.5c0.4,0.2,0.9,0.5,1.4,0.3
		c0.2-0.1,0.3-0.3,0.4-0.4c0.4,0.4,0.8,0.6,1.2,0.7c0.1,0,0.3,0,0.4,0l1.2-0.4c0,0.1,0,0.1,0,0.2c-0.1,0.2-0.1,0.5,0,0.7
		c0.1,0.2,0.3,0.4,0.6,0.4c3.2,0.5,8.2,4.5,8.7,11.3c0.4,4.4-1.7,8.3-3.7,10.5c-0.8,0.8-1.6,1.5-2.3,1.9c1.2-1.9,1.7-4.2,1.5-6.7
		c-0.3-3.2-1.4-6.1-3.1-8.2c-0.1-0.1-0.2-0.2-0.3-0.2c-1.7-0.3-3.3-1.7-4-3.3c-0.1-0.1-0.2-0.3-0.4-0.3c-0.2,0-0.3,0-0.4,0.1
		c-3,2.7-7.7,4.9-11.7,3.3c0,0-0.1,0-0.1-0.1c-0.3-0.1-0.5-0.2-0.8-0.4c1.5-0.9,2.1-1.9,2.2-2c0.1-0.2,0.1-0.5-0.1-0.6l-2-1.8
		C57.5,12,57.1,12,57,12.2c-0.2,0.2-0.2,0.5,0.1,0.7l1.7,1.5c-0.3,0.4-1,1.1-2.3,1.6c-0.2,0.1-0.3,0.2-0.3,0.4
		c0,0.2,0.1,0.4,0.2,0.5c0.4,0.3,0.8,0.5,1.2,0.7c-1.2,1.8-2.1,4.1-2.5,6.7c-0.3,2.1-0.1,4.1,0.6,5.9C55.3,30,55,29.7,54.7,29.3z
		 M57.5,31.7c-1.5-2.1-2-4.6-1.6-7.3c0.4-2.5,1.3-4.8,2.5-6.4c4.1,1.5,8.7-0.5,11.9-3.1c0.9,1.6,2.5,2.9,4.2,3.3
		c1.5,1.9,2.5,4.5,2.8,7.5c0.3,2.7-0.4,5.2-2.1,7c0,0,0,0,0,0v0c0,0-0.1,0.1-0.1,0.2c-0.3,0.4-0.7,0.7-1.1,1c0,0,0,0-0.1,0l0,0.1
		c-1.8,1.4-4.2,2.3-6.8,2.4h-1.1C62.7,36.1,59.4,34.4,57.5,31.7z M60.9,35.9c0.3,2.4,2,7.8,4.1,10.8c-3.3-1.7-5.8-5-6.8-7.7l1.5-0.9
		c0.2-0.1,0.3-0.3,0.2-0.5c0-0.2-0.1-0.4-0.3-0.4l-2-0.7c0.7-0.5,1.4-0.8,2.3-1.1l0,0C60.3,35.6,60.6,35.7,60.9,35.9z M52.7,55.9
		c0.2-7.8,0.4-15.2,4.1-18.8l1.5,0.6l-1,0.6c-0.2,0.1-0.3,0.4-0.2,0.6c1.1,3.4,4.2,7.5,8.6,9.2c-0.2,0.1-0.5,0.3-0.7,0.4
		c0,0,0,0-0.1,0c0,0-0.1,0-0.1,0.1c0,0-0.1,0.1-0.1,0.1c0,0,0,0,0,0c0,0.1,0,0.1,0,0.2c0,0,0,0,0,0c-0.1,2.9,0.6,6,1.2,8.9l-0.2,0.7
		c-0.6,2.3-1.2,4.4-1.1,6c-2.9-0.3-5-1.2-6.9-2.1V46c0-0.3-0.2-0.5-0.5-0.5s-0.5,0.2-0.5,0.5v14.4l-4.2,0.1
		C52.6,59,52.7,57.5,52.7,55.9z M52.8,63.1C52.8,63.1,52.8,63.1,52.8,63.1C52.8,63.1,52.8,63.1,52.8,63.1L52.8,63.1L52.8,62l3.4-0.1
		l0,1.3L52.8,63.1z M53.3,64.1l2.9,0.1l0,1.9C53.7,66,53.3,65.8,53.3,64.1z M65.8,92.4c-0.1,0.4-0.4,0.7-1,0.9
		c-2.2,0.9-5.4,0.5-6.9,0c-0.2-0.1-0.3-0.2-0.4-0.4c-0.2-0.4-0.1-1.1,0-1.7h8.1C65.8,91.6,65.9,92,65.8,92.4z M67.9,66.2
		c-0.3-0.3-0.6-0.4-0.8-0.4c-0.2,0-0.5,0.1-0.8,0.4c-1.8,1.9-1.4,17.6-1.2,23.6H58l-0.3-26.3c2,0.9,4.3,1.8,7.5,2.1c0,0,0,0,0,0
		c0.1,0,0.3-0.1,0.4-0.2c0.1-0.1,0.2-0.3,0.1-0.4c-0.2-1.2,0.2-3.1,0.8-5.1c0.5,1.9,0.8,3.6,0.8,4.9c0,0.3,0.2,0.5,0.5,0.5
		c3.4,0,6.3-0.1,8.3-1.4l-0.2,25.9h-6.1C69.8,83.8,69.8,68.1,67.9,66.2z M76.8,93c-1,1-6.5,0.8-7.6,0.1c-0.5-0.3-0.3-1.2-0.1-1.9
		h7.4c0.2,0.3,0.5,0.8,0.5,1.2C77.1,92.7,77,92.9,76.8,93z M77.5,66.1l0-1.4H81C80.6,65.9,80,66.3,77.5,66.1z M81.6,63.7h-4.1l0-1.1
		l4.1,0.3L81.6,63.7z"/>
</g>
</svg>
