<svg id="Calque_1" data-name="Calque 1" xmlns="http://www.w3.org/2000/svg" viewBox="0 0 473.19 407.86"><title>wedding-rings</title><path d="M379.34,173.44l-3.61,11.44a84.28,84.28,0,0,1,57,63.27l11.75-2.43A96.3,96.3,0,0,0,379.34,173.44Z" transform="translate(-19.41 -52.07)"/><path d="M442,294.07a95.88,95.88,0,0,0,4.5-29h-12a83.83,83.83,0,0,1-3.94,25.37Z" transform="translate(-19.41 -52.07)"/><path d="M55,405.64l-9.67,7.1a155.78,155.78,0,0,0,56,47.19l5.34-10.75A143.84,143.84,0,0,1,55,405.64Z" transform="translate(-19.41 -52.07)"/><path d="M41.75,383.7,31,389a155.23,155.23,0,0,0,8.77,15.62l10.1-6.46A142.41,142.41,0,0,1,41.75,383.7Z" transform="translate(-19.41 -52.07)"/><path d="M63.21,298.81l11.64,2.9a96.8,96.8,0,0,1,3.88-12.1l-11.15-4.42A105.8,105.8,0,0,0,63.21,298.81Z" transform="translate(-19.41 -52.07)"/><path d="M393.25,129.47A142.27,142.27,0,0,0,227.5,193.35l10.37,6c30.35-52.1,94.18-76.69,151.76-58.48a130.38,130.38,0,0,1,84.89,163.45c-21.66,68.46-95,106.55-163.44,84.89-58.41-18.48-96.41-76.06-90.36-136.91l-11.94-1.19a142.22,142.22,0,0,0,43.49,116.92,95.33,95.33,0,0,1-175.85-15,94.53,94.53,0,0,1-3.65-40.2l-11.9-1.49A107.49,107.49,0,0,0,167.28,432a107.65,107.65,0,0,0,94.28-55.85q4.92,3.93,10.19,7.43A119.85,119.85,0,0,1,53,360.41c-16.82-53.8,6.6-112.81,55.69-140.3l-5.86-10.47A131.86,131.86,0,0,0,206.78,450.47,130.69,130.69,0,0,0,282,389.81a142.26,142.26,0,0,0,68.25,17.52c60.38,0,116.54-38.8,135.7-99.35C509.61,233.2,468,153.13,393.25,129.47Z" transform="translate(-19.41 -52.07)"/><path d="M263.44,341.48a115.53,115.53,0,0,0,52,33.91,115.68,115.68,0,1,0-70.73-157.57,131.09,131.09,0,0,0-88-24.63l1,12A120,120,0,0,1,287.05,332.31l12,.77a132,132,0,0,0-44.56-107.49,103.77,103.77,0,1,1,19.75,109.9,106.58,106.58,0,0,0-.7-27.23,109.31,109.31,0,0,0-3.65-15.68,106.36,106.36,0,0,0-24.42-41.69,107.31,107.31,0,0,0-110.07-28.71,106.53,106.53,0,0,0-63.62,53.76l10.69,5.45a95.34,95.34,0,0,1,152.45-24.13A116.27,116.27,0,0,0,263.44,341.48Zm-1.79-31.37a94.58,94.58,0,0,1,1,10.33,104.48,104.48,0,0,1-15.82-48.59,95,95,0,0,1,11.54,24.31A96.59,96.59,0,0,1,261.65,310.11Z" transform="translate(-19.41 -52.07)"/><path d="M65.63,139.07,47.68,181.55l85.83,34.72,50.74-77.44-39-24.69Zm96.12-.3-21.56,6.75L128.55,132l15-4.7Zm-70.38,34.6,18.12,20.24L73.36,179Zm39.74-12.44L126.87,195,104,169.43ZM100.17,158,102,140.26l14.07-4.41,11.64,13.57Zm43.52-1,18-5.64L140.34,184ZM89.54,144.16,87.7,161.94l-21.56,6.74,8.38-19.82Z" transform="translate(-19.41 -52.07)"/><rect x="85.12" y="53.72" width="12" height="54.1" transform="translate(-39.37 -21.18) rotate(-17.37)"/><rect x="40.15" y="82.54" width="12" height="54.1" transform="translate(-91.75 47.6) rotate(-62.37)"/><rect x="117.46" y="72.82" width="54.1" height="12" transform="translate(-11.74 118.23) rotate(-62.37)"/></svg>